<?xml version="1.0" encoding="UTF-8" standalone="no"?>
<!-- Created with Inkscape (http://www.inkscape.org/) -->

<svg
   width="45.992847mm"
   height="58.499241mm"
   viewBox="0 0 45.992848 58.499241"
   version="1.1"
   id="svg1"
   xml:space="preserve"
   xmlns="http://www.w3.org/2000/svg"
   xmlns:svg="http://www.w3.org/2000/svg"><defs
     id="defs1" /><path
     style="opacity:1;fill:#E0E0E0;stroke:#000000;stroke-width:0.909661;stroke-dasharray:none"
     d="m 20.008549,57.772499 c -2.58823,-0.45452 -6.04602,-2.860005 -9.65076,-6.713757 -2.3968795,-2.56245 -3.2803495,-4.332777 -4.1893495,-8.394536 -0.33219,-1.484352 -0.78611,-2.69882 -1.00873,-2.69882 -0.22262,0 -0.40476,0.254372 -0.40476,0.565271 0,1.412237 -2.46089,-1.949816 -3.34632,-4.571731 -1.17676001,-3.484556 -1.27111001,-6.228967 -0.24349,-7.081811 1.16358,-0.965696 1.57795,-0.126472 2.69851,5.465388 0.56864,2.837663 1.12691,5.066345 1.24066,4.952626 0.11372,-0.113719 -0.35161,-3.183841 -1.03402,-6.822494 -1.53278,-8.17267 -1.67074,-15.962365 -0.35034,-19.783216 1.08525,-3.1403085 3.49676,-6.3006854 6.5099995,-8.5315301 6.35026,-4.70139421 17.83429,-4.96473851 24.79812,-0.5686549 2.80784,1.7725072 6.14559,5.8008392 7.11888,8.591788 1.26214,3.6192 1.13546,13.719687 -0.25791,20.563925 -0.56595,2.779869 -1.01547,5.59584 -0.99899,6.257714 0.0164,0.661873 0.54176,-1.261181 1.16721,-4.273454 1.25587,-6.04828 1.81737,-7.108992 2.96156,-5.594479 0.97314,1.288133 0.55118,4.326524 -1.11715,8.044037 -0.81775,1.822204 -1.69005,3.027532 -2.3812,3.29031 -0.82039,0.311906 -1.33553,1.236768 -2.07851,3.731538 -1.19502,4.012636 -2.90081,6.467091 -6.57387,9.45915 -4.84878,3.949795 -8.01716,4.963102 -12.85954,4.112736 z"
     id="overlay_head_f" /></svg>
