<?xml version="1.0" encoding="UTF-8" standalone="no"?>
<!-- Created with Inkscape (http://www.inkscape.org/) -->

<svg
   width="31.858431mm"
   height="31.608784mm"
   viewBox="0 0 31.858431 31.608784"
   version="1.1"
   id="svg1"
   xml:space="preserve"
   xmlns="http://www.w3.org/2000/svg"
   xmlns:svg="http://www.w3.org/2000/svg"><defs
     id="defs1" /><path
     style="fill:#E0E0E0;fill-opacity:1;stroke:#000000;stroke-width:0.856276;stroke-dasharray:none"
     d="M 3.5123127,30.298538 C 0.30745189,28.666799 0.35347881,28.902517 0.4669295,14.701192 0.52267191,7.7232562 0.72411508,1.6572071 0.91457803,1.2210944 1.2257122,0.50865087 2.0781256,0.42813816 9.3091509,0.42813816 h 8.0482761 l 0.280856,1.69918064 c 0.436094,2.6383456 0.340359,9.4393802 -0.151068,10.7319232 -0.652508,1.716246 0.101569,1.411578 1.101383,-0.444976 l 0.865565,-1.607238 3.881887,3.854291 c 2.135037,2.119842 4.611772,4.156684 5.503853,4.526306 5.295399,2.194031 2.143268,6.083697 -6.261086,7.726019 -2.183519,0.426693 -4.275885,0.959697 -4.649704,1.18446 -0.373819,0.224764 -1.582997,0.962554 -2.687064,1.639544 -1.684468,1.032906 -2.632058,1.257114 -5.8904721,1.393904 -3.3079187,0.138827 -4.172831,0.01535 -5.8392642,-0.833014 z"
     id="footRightBack" /></svg>
