<?xml version="1.0" encoding="UTF-8" standalone="no"?>
<!-- Created with Inkscape (http://www.inkscape.org/) -->

<svg
   width="26.33489mm"
   height="84.605003mm"
   viewBox="0 0 26.334891 84.605003"
   version="1.1"
   id="svg1"
   xml:space="preserve"
   xmlns="http://www.w3.org/2000/svg"
   xmlns:svg="http://www.w3.org/2000/svg"><defs
     id="defs1" /><path
     style="opacity:1;fill:#E0E0E0;stroke:#000000;stroke-width:0.909661;stroke-dasharray:none"
     d="m 3.1663305,82.317636 c 0.71448,-3.11547 0.23828,-19.83568 -0.79386,-27.87438 -0.52519,-4.09038 -0.9549,-10.1173 -0.9549,-13.39316 0,-5.78879 1.1911,-16.97746 1.88674,-17.72295 0.18979,-0.20339 -0.042,-1.89373 -0.51499,-3.75635 -1.05391,-4.15012 -2.33449,-13.1127699 -2.33449,-16.3391599 0,-2.15024 0.1189,-2.41090996 1.22631,-2.68884996 0.93832,-0.23551 12.5435595,0.0265 21.8790895,0.49394996 0.6209,0.0311 0.69847,1.28379 0.55366,8.94138 -0.13525,7.1525899 0.0305,10.3018199 0.84238,16.0015499 1.67273,11.74375 1.38163,14.48583 -3.30903,31.17197 -3.13227,11.14239 -5.47325,20.45287 -6.11209,24.30883 l -0.39875,2.40681 -6.1937395,0.13512 -6.19371,0.13515 z M 19.70935,10.940836 c 0,-0.26475 -0.21662,-0.48136 -0.48138,-0.48136 -0.26475,0 -0.48136,0.21661 -0.48136,0.48136 0,0.26474 0.21661,0.48135 0.48136,0.48135 0.26476,0 0.48138,-0.21661 0.48138,-0.48135 z"
     id="overlay_leg_fsx" /></svg>
