<?xml version="1.0" encoding="UTF-8" standalone="no"?>
<!-- Created with Inkscape (http://www.inkscape.org/) -->

<svg
   width="45.431793mm"
   height="77.885597mm"
   viewBox="0 0 45.431794 77.885598"
   version="1.1"
   id="svg1"
   xml:space="preserve"
   xmlns="http://www.w3.org/2000/svg"
   xmlns:svg="http://www.w3.org/2000/svg"><defs
     id="defs1" /><path
     style="fill:#00ffff;fill-opacity:0;stroke:#000000;stroke-width:0.856276;stroke-dasharray:none"
     d="M 2.4775553,75.078617 C 2.6344823,73.770252 2.889321,68.112006 3.0438641,62.504718 3.2977107,53.294519 3.1887023,50.84035 1.9154295,37.099082 0.59263451,22.823356 -0.00582917,6.075311 0.77880857,5.2906892 0.92885114,5.140644 2.6353528,5.8164692 4.5710365,6.7924906 9.0893948,9.0708177 12.80582,9.9285439 18.195506,9.9368783 24.236714,9.9461387 26.699905,9.1657502 36.145136,4.2494215 41.988633,1.207798 44.491462,0.11575673 44.730934,0.50323902 45.215579,1.2874111 45.013077,17.383973 44.447258,23.052406 42.973336,37.81822 40.377903,50.957454 35.512932,68.281921 l -2.576628,9.175538 H 17.564266 2.1922312 Z"
     id="thighRightBack" /></svg>
